<?xml version="1.0" encoding="utf-8"?>
<!-- Generator: Adobe Illustrator 18.1.0, SVG Export Plug-In . SVG Version: 6.00 Build 0)  -->
<svg version="1.1" id="图层_1" xmlns="http://www.w3.org/2000/svg" xmlns:xlink="http://www.w3.org/1999/xlink" x="0px" y="0px"
	 width="30px" height="30px" viewBox="0 0 30 30" enable-background="new 0 0 30 30" xml:space="preserve">
<g>
	<path fill="#FF3D00" d="M3.631,1.833 M3.631,0.015V0.01H3.605c-0.003,0-0.005-0.002-0.008-0.002c-0.003,0-0.005,0.002-0.008,0.002
		l-2.14,0.002c-0.063-0.011-0.13,0-0.197,0C0.56,0.011,0,0.576,0,1.297l0.013,15.657c0,0.721,0.558,1.306,1.248,1.306
		c0.052,0,0.104-0.003,0.153-0.011l2.191,0.005c0.01,0,0.018,0.006,0.026,0.006 M29.444,17.723C29.876,17,30.045,16.188,29.99,15.4
		c0.011-0.145,0-0.293-0.036-0.44l-2.7-12.442c-0.039-0.148-0.101-0.283-0.179-0.404c-0.29-0.602-0.731-1.135-1.315-1.524
		c-0.615-0.408-0.998-0.584-1.676-0.583L23.778,0L6.248,0.008H5.872V8.31L5.9,16.339v1.983c3.681,0.433,6.775,3.581,6.879,7.498
		c-0.01,0.114,0,0.228,0,0.345c0,2.095,1.34,3.835,3.348,3.835c1.725,0,3.167-1.257,3.54-2.94l0.016,0.003
		C19.888,26.103,20,25.105,20,24.081c0-1.581-0.324-3.262-0.796-4.674l7.202-0.024c0.065,0,0.127-0.007,0.189-0.015
		C27.786,19.318,28.769,18.859,29.444,17.723L29.444,17.723z M6.248,0.005c-0.01-0.002-0.013-0.002-0.01,0
		c-0.01,0.002-0.013,0.003,0.01,0.003c0.023,0,0.02-0.002,0.01-0.003C6.263,0.003,6.259,0.003,6.248,0.005L6.248,0.005z
		 M6.248,0.005"/>
</g>
</svg>
