<?xml version="1.0" encoding="utf-8"?>
<!-- Generator: Adobe Illustrator 18.1.0, SVG Export Plug-In . SVG Version: 6.00 Build 0)  -->
<svg version="1.1" id="图层_1" xmlns="http://www.w3.org/2000/svg" xmlns:xlink="http://www.w3.org/1999/xlink" x="0px" y="0px"
	 width="30px" height="30px" viewBox="0 0 30 30" enable-background="new 0 0 30 30" xml:space="preserve">
<g>
	<path fill="#FF3D00" d="M3.631,28.167 M3.631,11.74c-0.008,0-0.016,0.006-0.026,0.006l-2.191,0.005
		c-0.049-0.008-0.101-0.011-0.153-0.011c-0.69,0-1.248,0.584-1.248,1.306L0,28.703c0,0.721,0.56,1.286,1.252,1.286
		c0.067,0,0.133,0.011,0.197,0l2.14,0.002c0.003,0,0.005,0.002,0.008,0.002c0.003,0,0.005-0.002,0.008-0.002h0.026v-0.005
		 M29.444,12.277c-0.675-1.136-1.658-1.595-2.85-1.646c-0.062-0.008-0.124-0.015-0.189-0.015l-7.202-0.024
		C19.676,9.181,20,7.5,20,5.919c0-1.024-0.113-2.022-0.317-2.982L19.666,2.94C19.294,1.257,17.852,0,16.127,0
		c-2.008,0-3.348,1.74-3.348,3.835c0,0.117-0.01,0.231,0,0.345c-0.104,3.917-3.198,7.065-6.879,7.498v1.983L5.872,21.69v8.302h0.376
		L23.778,30l0.306-0.008c0.679,0.002,1.061-0.174,1.676-0.583c0.584-0.389,1.025-0.921,1.315-1.524
		c0.078-0.121,0.14-0.256,0.179-0.404l2.7-12.442c0.036-0.147,0.047-0.295,0.036-0.44C30.045,13.812,29.876,13,29.444,12.277
		L29.444,12.277z M6.248,29.995c0.011,0.002,0.015,0.002,0.01,0c0.01-0.002,0.013-0.003-0.01-0.003c-0.023,0-0.02,0.002-0.01,0.003
		C6.235,29.997,6.238,29.997,6.248,29.995L6.248,29.995z M6.248,29.995"/>
</g>
</svg>
