<?xml version="1.0" encoding="utf-8"?>
<!-- Generator: Adobe Illustrator 18.1.0, SVG Export Plug-In . SVG Version: 6.00 Build 0)  -->
<svg version="1.1" id="图层_1" xmlns="http://www.w3.org/2000/svg" xmlns:xlink="http://www.w3.org/1999/xlink" x="0px" y="0px"
	 width="30px" height="30px" viewBox="0 0 30 30" enable-background="new 0 0 30 30" xml:space="preserve">
<g>
	<path fill="#899198" d="M3.631,13.63c0.508,0,0.916-0.423,0.916-0.944c0-0.521-0.409-0.946-0.916-0.946
		c-0.008,0-0.016,0.006-0.026,0.006l-2.191,0.005c-0.049-0.008-0.101-0.011-0.153-0.011c-0.69,0-1.248,0.584-1.248,1.306L0,28.703
		c0,0.721,0.56,1.286,1.252,1.286c0.067,0,0.133,0.011,0.197,0l2.14,0.002c0.003,0,0.005,0.002,0.008,0.002
		c0.003,0,0.005-0.002,0.008-0.002h0.026v-0.005c0.47-0.02,0.848-0.414,0.848-0.902c0-0.49-0.378-0.884-0.848-0.903v-0.013H1.846
		l0.05-14.537H3.631L3.631,13.63L3.631,13.63z M29.444,12.277c-0.675-1.136-1.658-1.595-2.85-1.646
		c-0.062-0.008-0.124-0.015-0.189-0.015l-7.202-0.024C19.676,9.181,20,7.5,20,5.919c0-1.024-0.113-2.022-0.317-2.982L19.666,2.94
		C19.294,1.257,17.852,0,16.127,0c-2.008,0-3.348,1.74-3.348,3.835c0,0.117-0.01,0.231,0,0.345
		c-0.104,3.917-3.198,7.065-6.879,7.498v1.983L5.872,21.69v8.302h0.376L23.778,30l0.306-0.008c0.679,0.002,1.061-0.174,1.676-0.583
		c0.584-0.389,1.025-0.921,1.315-1.524c0.078-0.121,0.14-0.256,0.179-0.404l2.7-12.442c0.036-0.147,0.047-0.295,0.036-0.44
		C30.045,13.812,29.876,13,29.444,12.277L29.444,12.277z M28.299,14.189l-2.908,13.288l-0.005-0.002
		c-0.089,0.223-0.241,0.42-0.451,0.558c-0.147,0.098-0.308,0.156-0.47,0.179c-0.052-0.008-0.106,0-0.161,0L7.579,28.193
		L7.573,13.472c3.133-1.455,5.429-2.878,6.612-6.275c0.002,0.002,0.005,0.002,0.007,0.003c0.106-0.331,0.221-0.749,0.306-1.198
		c0.194-1.055,0.184-2.101,0.184-2.101c-0.174-1.371,0.908-1.913,1.556-1.913c0.885,0.031,1.761,1.216,1.761,1.89
		c0,0,0.197,0.996,0.199,2.067c0.002,1.35-0.164,2.055-0.164,2.055h-0.016c-0.205,1.115-0.568,2.173-1.068,3.142l0.013,0.013
		c-0.083,0.172-0.13,0.368-0.13,0.575c0,0.721,0.669,0.786,1.359,0.786l8.37,0.01c0,0,0.514,0.016,0.516,0.016v0.003
		c0.425-0.023,0.848,0.189,1.09,0.594c0.192,0.326,0.225,0.708,0.122,1.047L28.299,14.189L28.299,14.189z M6.248,29.995
		c0.011,0.002,0.015,0.002,0.01,0c0.01-0.002,0.013-0.003-0.01-0.003c-0.023,0-0.02,0.002-0.01,0.003
		C6.235,29.997,6.238,29.997,6.248,29.995L6.248,29.995z M6.248,29.995"/>
</g>
</svg>
