<?xml version="1.0" encoding="utf-8"?>
<!-- Generator: Adobe Illustrator 18.1.0, SVG Export Plug-In . SVG Version: 6.00 Build 0)  -->
<svg version="1.1" id="图层_1" xmlns="http://www.w3.org/2000/svg" xmlns:xlink="http://www.w3.org/1999/xlink" x="0px" y="0px"
	 width="65px" height="65px" viewBox="0 0 65 65" enable-background="new 0 0 65 65" xml:space="preserve">
<g>
	<path fill-rule="evenodd" clip-rule="evenodd" fill="#CED8E1" d="M32.5,0C50.4,0,65,14.6,65,32.5C65,50.4,50.4,65,32.5,65
		C14.6,65,0,50.4,0,32.5C0,14.6,14.6,0,32.5,0z"/>
	<g>
		<g>
			<path fill-rule="evenodd" clip-rule="evenodd" fill="#FFFFFF" d="M36.1,31.4c3.2-1.3,5.4-4.5,5.4-8.2c0-4.9-3.8-8.8-8.6-8.8
				c-4.7,0-8.6,3.9-8.6,8.8c0,3.7,2.3,6.9,5.4,8.2c-6.8,1.6-12,8.1-12.9,16.2H49C48.1,39.5,42.9,33,36.1,31.4z"/>
		</g>
	</g>
</g>
</svg>
