<?xml version="1.0" encoding="utf-8"?>
<!-- Generator: Adobe Illustrator 18.1.0, SVG Export Plug-In . SVG Version: 6.00 Build 0)  -->
<svg version="1.1" id="图层_1" xmlns="http://www.w3.org/2000/svg" xmlns:xlink="http://www.w3.org/1999/xlink" x="0px" y="0px"
	 width="26px" height="26px" viewBox="0 0 26 26" enable-background="new 0 0 26 26" xml:space="preserve">
<g>
	<path fill="#FFAB00" d="M13,26C5.8,26,0,20.2,0,13C0,5.8,5.8,0,13,0c7.2,0,13,5.8,13,13C26,20.2,20.2,26,13,26L13,26z M19.2,8.2
		c0.4-0.4,0.4-1,0-1.4c-0.4-0.4-1-0.4-1.4,0L13,11.6L8.2,6.8c-0.4-0.4-1-0.4-1.4,0c-0.4,0.4-0.4,1,0,1.4l4.8,4.8l-4.8,4.8
		c-0.4,0.4-0.4,1,0,1.4c0.4,0.4,1,0.4,1.4,0l4.8-4.8l4.8,4.8c0.4,0.4,1,0.4,1.4,0c0.4-0.4,0.4-1,0-1.4L14.4,13L19.2,8.2L19.2,8.2z
		 M19.2,8.2"/>
</g>
</svg>
