<?xml version="1.0" encoding="utf-8"?>
<!-- Generator: Adobe Illustrator 18.1.0, SVG Export Plug-In . SVG Version: 6.00 Build 0)  -->
<svg version="1.1" id="图层_1" xmlns="http://www.w3.org/2000/svg" xmlns:xlink="http://www.w3.org/1999/xlink" x="0px" y="0px"
	 width="32px" height="32px" viewBox="0 0 32 32" enable-background="new 0 0 32 32" xml:space="preserve">
<g>
	<path fill-rule="evenodd" clip-rule="evenodd" fill="#DCDFE4" d="M16,0c8.837,0,16,7.163,16,16c0,8.837-7.163,16-16,16
		S0,24.837,0,16C0,7.163,7.163,0,16,0z"/>
	<g>
		<path fill="#FFFFFF" d="M17.208,21.382c0.322,0.291,0.482,0.683,0.482,1.173c0,0.476-0.16,0.874-0.482,1.196
			c-0.353,0.307-0.759,0.46-1.219,0.46s-0.852-0.161-1.174-0.483c-0.337-0.322-0.506-0.713-0.506-1.173
			c0-0.49,0.169-0.882,0.506-1.173c0.307-0.307,0.698-0.46,1.174-0.46C16.495,20.922,16.901,21.075,17.208,21.382z M14.563,7.789
			h2.875l-0.528,11.776h-1.817L14.563,7.789z"/>
	</g>
</g>
</svg>
