<?xml version="1.0" encoding="utf-8"?>
<!-- Generator: Adobe Illustrator 18.1.0, SVG Export Plug-In . SVG Version: 6.00 Build 0)  -->
<svg version="1.1" id="图层_1" xmlns="http://www.w3.org/2000/svg" xmlns:xlink="http://www.w3.org/1999/xlink" x="0px" y="0px"
	 width="30px" height="30px" viewBox="0 0 30 30" enable-background="new 0 0 30 30" xml:space="preserve">
<g>
	<path fill-rule="evenodd" clip-rule="evenodd" fill="#2577FF" d="M15,0c8.3,0,15,6.7,15,15c0,8.3-6.7,15-15,15S0,23.3,0,15
		C0,6.7,6.7,0,15,0z"/>
	<g>
		<path fill="#FFFFFF" d="M15.7,12.7H17v3.2c0,0.8-0.1,1.5-0.3,2.1h6.6v1.4h-7.2c-0.1,0.1-0.2,0.4-0.4,0.7c2.6,0.8,5,1.8,7.2,2.9
			l-0.8,1.3c-2.3-1.3-4.8-2.4-7.2-3.2c-0.1,0.1-0.2,0.1-0.3,0.2c-1.5,1.2-3.8,2.2-7.2,2.9l-0.8-1.2c3.3-0.7,5.6-1.5,6.9-2.6
			c0.3-0.3,0.6-0.6,0.8-0.9H6.7V18h8.6c0.2-0.6,0.4-1.3,0.4-2.1V12.7z M6.9,10.6h7.4V8.7h-6V7.4h6V5.8h1.4v1.6h5.8v1.3h-5.8v1.9h7.1
			v0.9c-0.3,1.3-0.7,2.6-1.3,4l-1.4-0.4c0.5-0.9,0.8-2,1.2-3.2H6.9V10.6z M8.3,14.7c1.5,0.5,2.9,1.2,4.2,2l-0.7,1.1
			c-1.3-0.9-2.7-1.6-4.2-2.1L8.3,14.7z M10.1,12.6c1.5,0.5,2.9,1.1,4.1,1.7l-0.7,1.1c-1.4-0.8-2.7-1.4-4.1-1.8L10.1,12.6z"/>
	</g>
</g>
</svg>
