<?xml version="1.0" encoding="utf-8"?>
<!-- Generator: Adobe Illustrator 18.1.0, SVG Export Plug-In . SVG Version: 6.00 Build 0)  -->
<svg version="1.1" id="图层_1" xmlns="http://www.w3.org/2000/svg" xmlns:xlink="http://www.w3.org/1999/xlink" x="0px" y="0px"
	 width="30px" height="30px" viewBox="0 0 30 30" enable-background="new 0 0 30 30" xml:space="preserve">
<path fill-rule="evenodd" clip-rule="evenodd" fill="#FF3D00" d="M15.1,0c8.3,0,15,6.7,15,15c0,8.3-6.7,15-15,15s-15-6.7-15-15
	C0.1,6.7,6.8,0,15.1,0z"/>
<g>
	<path fill="#FFFFFF" d="M15.4,8.8h1.4V13c0,1.1-0.2,2.1-0.4,3h7.4v1.4h-7.9c-0.2,0.4-0.3,0.7-0.4,0.9c2.9,1.3,5.5,2.7,7.9,4.2
		l-1,1.1c-2.5-1.6-5.1-3-7.7-4.2l-0.3,0.4c-1.5,1.6-3.8,2.8-7.1,3.7l-0.8-1.3c3.3-0.9,5.6-2,6.9-3.4c0.4-0.5,0.7-0.9,0.9-1.4H6.4V16
		h8.5c0.3-0.9,0.4-1.9,0.5-3V8.8z M7.1,6.4h15.2v0.9c-0.3,1.1-0.7,2.3-1.2,3.6l-1.4-0.4c0.4-0.8,0.7-1.7,1-2.7H7.1V6.4z M8,11.6
		c1.5,0.6,2.9,1.4,4.2,2.2L11.4,15c-1.4-1-2.8-1.8-4.1-2.4L8,11.6z M9.8,8.8c1.5,0.6,2.9,1.4,4.1,2.2l-0.7,1.1
		c-1.4-1-2.7-1.8-4.1-2.4L9.8,8.8z"/>
</g>
</svg>
