<?xml version="1.0" encoding="utf-8"?>
<!-- Generator: Adobe Illustrator 18.1.0, SVG Export Plug-In . SVG Version: 6.00 Build 0)  -->
<svg version="1.1" id="图层_1" xmlns="http://www.w3.org/2000/svg" xmlns:xlink="http://www.w3.org/1999/xlink" x="0px" y="0px"
	 width="30px" height="30px" viewBox="0 0 30 30" enable-background="new 0 0 30 30" xml:space="preserve">
<g>
	<path fill="#333333" d="M0.4,13.9c-0.2,0-0.4,0.2-0.4,0.3l0,1.5c0,0.2,0.2,0.4,0.4,0.4h25.3l-5.5,5.2c-0.1,0.1-0.1,0.4,0,0.5
		l1.1,1.1c0.1,0.1,0.4,0.1,0.5,0l7-6.6l0,0l0,0l1.1-1C30,15.2,30,15.1,30,15s0-0.2-0.2-0.3l-1.1-1l0,0l0,0l-7-6.6
		c-0.1-0.1-0.3-0.1-0.5,0l-1.1,1.1c-0.1,0.1-0.1,0.4,0,0.5l5.6,5.2H0.4L0.4,13.9z"/>
</g>
</svg>
